<svg xmlns="http://www.w3.org/2000/svg" viewBox="0 0 98.79 87.78"><defs><style>.cls-1{fill:#9be64f;}.cls-2{fill:#001336;}</style></defs><g id="Layer_2" data-name="Layer 2"><g id="Layer_1-2" data-name="Layer 1"><path class="cls-1" d="M86.83,87.78H5.48A5.48,5.48,0,0,1,.05,81.6L6.52,4.78A5.48,5.48,0,0,1,12,0H93.3a5.48,5.48,0,0,1,5.44,6.18L92.27,83A5.48,5.48,0,0,1,86.83,87.78Z"/><g id="SBw3ae"><path class="cls-2" d="M58.21,60.75a3.87,3.87,0,0,0,1.43-.58L71,53.55a12.59,12.59,0,0,1,5.29-1.88,4.54,4.54,0,0,1,4.82,3,4.69,4.69,0,0,1-1.92,5.58L58.69,72.87a8.49,8.49,0,0,1-6.83,1.07c-4.71-1.22-9.42-2.46-14.11-3.77-1-.29-1.6.35-2.33.73-.23.12-.13.35,0,.53l.55,1a2.76,2.76,0,0,1-1,3.79c-1,.64-2.08,1.22-3.14,1.79a2.81,2.81,0,0,1-4.09-1.19c-1.21-2.09-2.38-4.2-3.57-6.3L18.78,61a4.51,4.51,0,0,1-.73-1.68,2.75,2.75,0,0,1,1.41-2.89c1-.62,2.09-1.22,3.15-1.79a2.82,2.82,0,0,1,3.92,1.11l.23.4c.67,1.14.39,1.19,1.66.46,2.92-1.66,5.77-3.44,8.75-5a8.62,8.62,0,0,1,7.37-.51,69.43,69.43,0,0,0,9.33,3,7.61,7.61,0,0,1,2.74.89,4.39,4.39,0,0,1,1.76,5.14C58.32,60.34,58.28,60.51,58.21,60.75ZM41.48,52.82A7.32,7.32,0,0,0,37.65,54c-2.87,1.62-5.7,3.3-8.57,4.92-.53.3-.51.55-.24,1q2.23,3.88,4.42,7.79c.78,1.39.79,1.44,2.15.57A2.88,2.88,0,0,1,38,67.88c4.63,1.29,9.28,2.48,13.91,3.76a7.11,7.11,0,0,0,5.92-.86q10-6.21,20.08-12.37A2.48,2.48,0,0,0,79,55.29a2.39,2.39,0,0,0-2.72-1.36,10.08,10.08,0,0,0-3.57,1.29c-4.11,2.37-8.2,4.76-12.32,7.11a7.58,7.58,0,0,1-4.57,1c-3.42-.3-6.63-1.46-9.92-2.32a1.57,1.57,0,0,1-.3-.12,1.12,1.12,0,0,1,.67-2.11c.3,0,.59.15.89.23l5.59,1.52a5.1,5.1,0,0,0,2,.19,1.68,1.68,0,0,0,1.38-1,2.12,2.12,0,0,0-1.36-3c-.53-.15-1.07-.24-1.6-.36a93.85,93.85,0,0,1-9.71-3.13A5.06,5.06,0,0,0,41.48,52.82ZM34,73.81a1.46,1.46,0,0,0-.26-.73l-2-3.6-7-12.31c-.4-.7-.57-.75-1.25-.38L21,58.18c-.83.48-.87.62-.4,1.45C22,62,23.31,64.44,24.67,66.85q2.46,4.35,4.93,8.7c.41.71.6.75,1.31.35l2.58-1.45C33.75,74.31,34,74.16,34,73.81Z"/><path class="cls-2" d="M64.71,45c-1.28,0-2.55,0-3.82,0-.51,0-.73.12-.79.68-.22,2.42-1.65,3.68-4.1,3.68H43.49c-2.55,0-3.93-1.22-4.18-3.74-.06-.56-.33-.62-.78-.62H31.09a3.22,3.22,0,0,1-2.49-.82,2.61,2.61,0,0,1-.7-2.67,7.77,7.77,0,0,1,3.7-4.68c.44-.25.54-.41.21-.88a4.58,4.58,0,0,1,.81-6.12,4.69,4.69,0,0,1,6.1,0,4.63,4.63,0,0,1,.78,6c-.34.5-.32.7.23,1A4.73,4.73,0,0,1,41.19,38c.26.27.44.26.69,0a9.63,9.63,0,0,1,3.35-2.51c.46-.21.45-.36.13-.74a5.52,5.52,0,0,1-1-6.13,5.79,5.79,0,0,1,10.58-.24,5.51,5.51,0,0,1-.8,6.27c-.39.47-.43.64.16.9A9.15,9.15,0,0,1,57.53,38c.25.29.43.3.69,0a5.19,5.19,0,0,1,1.53-1.14c.47-.23.51-.41.21-.86a4.63,4.63,0,0,1,7.12-5.86,4.54,4.54,0,0,1,.59,5.74c-.37.54-.3.75.26,1.06a7.62,7.62,0,0,1,3.53,4.42A2.67,2.67,0,0,1,69.18,45a3.4,3.4,0,0,1-.46.06h-4Zm-15,2.07h6.65a1.36,1.36,0,0,0,1.49-1.27,10.58,10.58,0,0,0,0-2,8.16,8.16,0,0,0-16.23,1.66c.07,1.13.53,1.63,1.67,1.64Zm3.57-16.24a3.54,3.54,0,1,0-7.08,0,3.54,3.54,0,1,0,7.08,0ZM64.53,42.75h3.81c1,0,1.17-.29.79-1.21a5.86,5.86,0,0,0-9.2-2c-.82.74-.81.74-.43,1.76a8,8,0,0,1,.29,1c.08.41.3.56.73.56C61.85,42.73,63.19,42.75,64.53,42.75Zm-29.66,0h3.88a1.82,1.82,0,0,0,.52,0,4.24,4.24,0,0,0,.78-2.65,5.59,5.59,0,0,0-5.44-1.93,5.51,5.51,0,0,0-4.43,3.7c-.23.62,0,.9.68.9Zm.74-7A2.39,2.39,0,0,0,35.67,31a2.41,2.41,0,0,0-2.4,2.37A2.35,2.35,0,0,0,35.61,35.76Zm30.54-2.38A2.44,2.44,0,0,0,63.77,31a2.41,2.41,0,0,0-2.37,2.41,2.38,2.38,0,0,0,2.38,2.37A2.35,2.35,0,0,0,66.15,33.38Z"/><path class="cls-2" d="M59.68,25.61c.2-.72.41-1.64.69-2.54A1,1,0,0,0,60,21.84c-.63-.46-1.24-1-1.85-1.48a1.39,1.39,0,0,1-.55-1.51,1.34,1.34,0,0,1,1.28-1.05c.9-.07,1.8-.12,2.69-.16a.81.81,0,0,0,.81-.63c.26-.76.57-1.51.85-2.27a1.43,1.43,0,0,1,2.75,0c.29.76.59,1.51.86,2.28a.83.83,0,0,0,.79.65c.63.06,1.27,0,1.9.08.33,0,.66.05,1,.1a1.39,1.39,0,0,1,.66,2.43c-.65.56-1.31,1.11-2,1.62A.88.88,0,0,0,68.75,23c.27.78.44,1.6.66,2.41A1.41,1.41,0,0,1,67.3,27c-.71-.44-1.42-.88-2.09-1.37a1,1,0,0,0-1.3,0A22,22,0,0,1,61.82,27,1.41,1.41,0,0,1,59.68,25.61ZM61.28,20c1.68.92,2,2.18,1.15,3.88.85-.31,1.32-.95,2.09-1s1.25.67,2,.87c0-.77-.5-1.43-.22-2.16s1.09-1,1.64-1.71c-1.92.39-3-.41-3.36-2.28C64.19,19.41,63.18,20.22,61.28,20Z"/><path class="cls-2" d="M41.92,19.22a1.53,1.53,0,0,1-.61,1.13c-.63.51-1.24,1-1.9,1.52A.93.93,0,0,0,39,23.06c.25.75.43,1.52.63,2.28A1.43,1.43,0,0,1,39.15,27a1.41,1.41,0,0,1-1.72,0c-.71-.47-1.43-.93-2.14-1.41a.7.7,0,0,0-.9,0c-.7.48-1.43.94-2.14,1.41A1.43,1.43,0,0,1,30,25.33c.23-.82.42-1.66.68-2.47a.68.68,0,0,0-.27-.85c-.66-.5-1.29-1.05-2-1.56a1.44,1.44,0,0,1,.76-2.68c.88-.1,1.76,0,2.63-.13a.78.78,0,0,0,.71-.57c.27-.76.57-1.51.86-2.27a1.47,1.47,0,0,1,1.39-1.12,1.45,1.45,0,0,1,1.4,1.1c.27.72.58,1.43.81,2.16a1,1,0,0,0,1,.73,25.39,25.39,0,0,1,2.76.16A1.39,1.39,0,0,1,41.92,19.22Zm-3.8.8c-.8-.19-1.56,0-2.2-.43s-.63-1.32-1.08-1.94c-.41.65-.41,1.49-1.07,2s-1.44.23-2.22.35c.52.58,1.25.86,1.56,1.56s-.27,1.43-.19,2.2c.73-.21,1.19-.92,2-.86s1.24.68,2.1,1C36.06,22.11,36.52,20.89,38.12,20Z"/><path class="cls-2" d="M49.73,10.86a1.37,1.37,0,0,1,1.33,1c.31.8.63,1.59.91,2.4a.76.76,0,0,0,.81.59c.85,0,1.71.09,2.56.12a1.33,1.33,0,0,1,1.32.91,1.39,1.39,0,0,1-.43,1.61c-.68.56-1.35,1.12-2.06,1.64a.77.77,0,0,0-.31,1c.23.8.43,1.61.66,2.41a1.43,1.43,0,0,1-2.2,1.63c-.72-.47-1.45-.92-2.15-1.41a.7.7,0,0,0-.94,0c-.62.44-1.28.85-1.92,1.26-.8.52-1.4.57-1.94.14A1.55,1.55,0,0,1,45,22.2c.22-.71.39-1.44.6-2.16a.76.76,0,0,0-.33-.95c-.67-.49-1.31-1-1.95-1.56a1.41,1.41,0,0,1-.52-1.69,1.37,1.37,0,0,1,1.39-.9c.86,0,1.71-.1,2.56-.12a.66.66,0,0,0,.69-.48q.47-1.26,1-2.52A1.38,1.38,0,0,1,49.73,10.86ZM47.69,21c1.38-1.32,2.69-1.21,4.07,0A2.5,2.5,0,0,1,53,17.23c-.82-.36-1.58-.06-2.2-.5s-.59-1.29-1.06-1.89c-.44.61-.42,1.42-1.05,1.89s-1.42.11-2.21.54C48.16,18.07,48.39,19.33,47.69,21Z"/><path class="cls-2" d="M22.41,60.18A1.22,1.22,0,0,1,23.59,59a1.17,1.17,0,0,1,1.25,1.15,1.24,1.24,0,0,1-1.17,1.26A1.26,1.26,0,0,1,22.41,60.18Z"/></g></g></g></svg>