<svg xmlns="http://www.w3.org/2000/svg" viewBox="0 0 394.07 50.8"><defs><style>.cls-1{fill:#479e34;}</style></defs><g id="Layer_2" data-name="Layer 2"><g id="Layer_1-2" data-name="Layer 1"><path class="cls-1" d="M37.42,43.44H27.3a1.38,1.38,0,1,1,0-2.75H37.42a2.47,2.47,0,0,0,2.47-2.46V16.58a2.48,2.48,0,0,0-1.17-2.09L22.61,4.55a2.47,2.47,0,0,0-2.59,0L3.92,14.49a2.48,2.48,0,0,0-1.17,2.09V38.23a2.46,2.46,0,0,0,2.46,2.46H17.92a2,2,0,0,0,2-2V14.3a1.38,1.38,0,0,1,2.75,0V38.67a4.78,4.78,0,0,1-4.77,4.77H5.21A5.21,5.21,0,0,1,0,38.23V16.58a5.18,5.18,0,0,1,2.48-4.43l16.1-9.93a5.19,5.19,0,0,1,5.47,0l16.11,9.93a5.17,5.17,0,0,1,2.47,4.43V38.23A5.21,5.21,0,0,1,37.42,43.44Z"/><path class="cls-1" d="M21.32,32.44a1.35,1.35,0,0,1-1-.4l-8.3-8.29A1.38,1.38,0,1,1,14,21.8l8.29,8.3a1.37,1.37,0,0,1-1,2.34Z"/><path class="cls-1" d="M21.32,32.44a1.35,1.35,0,0,1-1-.4,1.36,1.36,0,0,1,0-1.94l8.29-8.3a1.38,1.38,0,1,1,1.94,1.95L22.29,32A1.36,1.36,0,0,1,21.32,32.44Z"/><path class="cls-1" d="M185.3,43H167.15a1.38,1.38,0,0,1,0-2.75H185.3a3,3,0,0,0,2.61-4.53l-6.62-11.47a1.37,1.37,0,0,1,2.38-1.37l6.62,11.47a5.77,5.77,0,0,1-5,8.65Z"/><path class="cls-1" d="M161.84,43H149a5.77,5.77,0,0,1-5-8.65l9.07-15.72A1.38,1.38,0,1,1,155.46,20l-9.07,15.71A3,3,0,0,0,149,40.22h12.84a1.38,1.38,0,0,1,0,2.75Z"/><path class="cls-1" d="M180,20.66a1.36,1.36,0,0,1-1.19-.69L169.76,4.26a3,3,0,0,0-5.22,0l-6.37,11a1.37,1.37,0,0,1-2.38-1.37l6.37-11a5.76,5.76,0,0,1,10,0l9.08,15.72A1.37,1.37,0,0,1,180,20.66Z"/><path class="cls-1" d="M171.8,47.62a1.41,1.41,0,0,1-1-.4l-4.65-4.65a1.38,1.38,0,0,1,0-2L170.83,36a1.38,1.38,0,0,1,1.94,2l-3.68,3.67,3.68,3.68a1.38,1.38,0,0,1,0,1.95A1.41,1.41,0,0,1,171.8,47.62Z"/><path class="cls-1" d="M180,20.66a1.47,1.47,0,0,1-.36,0l-6.35-1.71a1.37,1.37,0,0,1-1-1.68,1.39,1.39,0,0,1,1.68-1l5,1.35,1.34-5a1.38,1.38,0,0,1,2.66.71l-1.7,6.35a1.4,1.4,0,0,1-.64.84A1.42,1.42,0,0,1,180,20.66Z"/><path class="cls-1" d="M156,27a1.36,1.36,0,0,1-1.32-1l-1.35-5-5,1.35a1.38,1.38,0,1,1-.71-2.66l6.35-1.7a1.38,1.38,0,0,1,1.68,1l1.7,6.35a1.38,1.38,0,0,1-1,1.69A1.47,1.47,0,0,1,156,27Z"/><path class="cls-1" d="M388.83,46.79H371.18a5.25,5.25,0,0,1-5.25-5.24V12.71a5.25,5.25,0,0,1,5.25-5.25h17.65a5.25,5.25,0,0,1,5.24,5.25V41.55a1.37,1.37,0,1,1-2.74,0V12.71a2.5,2.5,0,0,0-2.5-2.5H371.18a2.5,2.5,0,0,0-2.5,2.5V41.55a2.5,2.5,0,0,0,2.5,2.49h17.65a1.38,1.38,0,0,1,0,2.75Z"/><path class="cls-1" d="M386.38,18.09H367.31a1.37,1.37,0,1,1,0-2.74h19.07a1.37,1.37,0,1,1,0,2.74Z"/><path class="cls-1" d="M386.38,27.66H367.31a1.38,1.38,0,1,1,0-2.75h19.07a1.38,1.38,0,0,1,0,2.75Z"/><path class="cls-1" d="M386.38,37.23H367.31a1.38,1.38,0,1,1,0-2.75h19.07a1.38,1.38,0,0,1,0,2.75Z"/><path class="cls-1" d="M385.9,5.65h-2.75V3.59h-6.3V5.65H374.1V3.51A2.68,2.68,0,0,1,376.77.84h6.46a2.68,2.68,0,0,1,2.67,2.67Z"/><path class="cls-1" d="M321,40.29H310.75a4.53,4.53,0,0,1-4.52-4.53V34.35a17.54,17.54,0,0,1-7.92-15.71A17.73,17.73,0,0,1,315,2.1a17.59,17.59,0,0,1,18.43,17.56,1.38,1.38,0,1,1-2.75,0A14.84,14.84,0,0,0,315.14,4.85a15,15,0,0,0-14.09,13.94,14.79,14.79,0,0,0,7.26,13.62,1.39,1.39,0,0,1,.67,1.18v2.17a1.78,1.78,0,0,0,1.77,1.78H321a1.78,1.78,0,0,0,1.78-1.78V33.59a1.38,1.38,0,0,1,2.75,0v2.17A4.53,4.53,0,0,1,321,40.29Z"/><path class="cls-1" d="M324.11,35a1.38,1.38,0,0,1-.7-2.56,15,15,0,0,0,6.39-7.69,1.37,1.37,0,1,1,2.58.94,17.6,17.6,0,0,1-7.57,9.11A1.38,1.38,0,0,1,324.11,35Z"/><path class="cls-1" d="M322.15,44.29H309.57a1.38,1.38,0,1,1,0-2.75h12.58a1.38,1.38,0,0,1,0,2.75Z"/><path class="cls-1" d="M321,40.29H310.75a1.38,1.38,0,0,1,0-2.75H321a1.38,1.38,0,1,1,0,2.75Z"/><path class="cls-1" d="M317.9,48.3h-4.08a1.38,1.38,0,1,1,0-2.75h4.08a1.38,1.38,0,0,1,0,2.75Z"/><path class="cls-1" d="M315.86,40.29a1.38,1.38,0,0,1-1.38-1.38V14.33a1.38,1.38,0,0,1,2.75,0V38.91A1.37,1.37,0,0,1,315.86,40.29Z"/><path class="cls-1" d="M315.86,28a1.36,1.36,0,0,1-1-.41l-5.28-5.27a1.38,1.38,0,0,1,1.95-1.94l5.27,5.27a1.38,1.38,0,0,1-1,2.35Z"/><path class="cls-1" d="M250.9,42.86a1.25,1.25,0,0,1-.59-.14L238.25,37a1.37,1.37,0,1,1,1.18-2.48l12.06,5.75a1.38,1.38,0,0,1-.59,2.62Z"/><path class="cls-1" d="M254,31.29a11.13,11.13,0,0,1-11.12-11.12C242.89,14.4,252,4.72,253,3.63a1.38,1.38,0,0,1,1-.42h0a1.38,1.38,0,0,1,1,.42c1,1.09,10.13,10.77,10.13,16.54A11.14,11.14,0,0,1,254,31.29Zm0-24.68c-3,3.35-8.37,10-8.37,13.56a8.38,8.38,0,1,0,16.75,0C262.39,16.64,257,10,254,6.61Z"/><path class="cls-1" d="M254,31.29a1.37,1.37,0,0,1-1.37-1.37V13.76a1.38,1.38,0,0,1,2.75,0V29.92A1.37,1.37,0,0,1,254,31.29Z"/><path class="cls-1" d="M254,25.19a1.36,1.36,0,0,1-1-.4l-4.08-4.08a1.38,1.38,0,1,1,1.94-1.95l4.08,4.08a1.38,1.38,0,0,1,0,1.95A1.36,1.36,0,0,1,254,25.19Z"/><path class="cls-1" d="M249.25,49.2a6.84,6.84,0,0,1-3-.67L228.72,40.2l-7.58,2a1.37,1.37,0,0,1-1.19-.24,1.42,1.42,0,0,1-.53-1.09V27.36A1.37,1.37,0,0,1,220.79,26h10.58a1.31,1.31,0,0,1,.59.13l17.25,8.24a5.93,5.93,0,0,1,3.38,4.8l8-3.78a6.94,6.94,0,0,1,9.23,3.3,1.37,1.37,0,0,1-.65,1.83l-16.93,8A6.85,6.85,0,0,1,249.25,49.2ZM228.86,37.38a1.29,1.29,0,0,1,.58.13l18,8.54a4.18,4.18,0,0,0,3.59,0l15.47-7.34a4.2,4.2,0,0,0-4.78-.84l-10.25,4.86A1.38,1.38,0,0,1,249.63,41a3.2,3.2,0,0,0-1.6-4.12l-17-8.1h-8.89V39.06l6.34-1.64A1.39,1.39,0,0,1,228.86,37.38Z"/><path class="cls-1" d="M92.93,41.82a15.62,15.62,0,1,1,8.48-28.73,1.37,1.37,0,0,1-1.5,2.3,12.84,12.84,0,1,0,3.88,3.9,1.37,1.37,0,1,1,2.31-1.48,15.61,15.61,0,0,1-13.17,24Z"/><path class="cls-1" d="M92.93,8.07a1.37,1.37,0,0,1-1.37-1.38V3A1.37,1.37,0,1,1,94.3,3V6.69A1.37,1.37,0,0,1,92.93,8.07Z"/><path class="cls-1" d="M83.18,10.68A1.37,1.37,0,0,1,82,10L80.13,6.78a1.37,1.37,0,1,1,2.38-1.37l1.85,3.21a1.37,1.37,0,0,1-1.18,2.06Z"/><path class="cls-1" d="M76,17.82a1.38,1.38,0,0,1-.68-.18l-3.22-1.86a1.38,1.38,0,0,1,1.38-2.38l3.21,1.86a1.37,1.37,0,0,1,.5,1.88A1.35,1.35,0,0,1,76,17.82Z"/><path class="cls-1" d="M73.42,27.58H69.71a1.38,1.38,0,1,1,0-2.75h3.71a1.38,1.38,0,0,1,0,2.75Z"/><path class="cls-1" d="M72.82,39.19a1.37,1.37,0,0,1-.69-2.56l3.22-1.86a1.37,1.37,0,0,1,1.37,2.38L73.51,39A1.45,1.45,0,0,1,72.82,39.19Z"/><path class="cls-1" d="M81.32,47.69a1.33,1.33,0,0,1-.69-.19,1.37,1.37,0,0,1-.5-1.87L82,42.41a1.38,1.38,0,1,1,2.38,1.38L82.51,47A1.39,1.39,0,0,1,81.32,47.69Z"/><path class="cls-1" d="M92.93,50.8a1.37,1.37,0,0,1-1.37-1.37V45.72a1.37,1.37,0,1,1,2.74,0v3.71A1.37,1.37,0,0,1,92.93,50.8Z"/><path class="cls-1" d="M104.54,47.69a1.38,1.38,0,0,1-1.19-.69l-1.85-3.21a1.38,1.38,0,0,1,2.38-1.38l1.85,3.22a1.37,1.37,0,0,1-.5,1.87A1.36,1.36,0,0,1,104.54,47.69Z"/><path class="cls-1" d="M113,39.19a1.45,1.45,0,0,1-.69-.18l-3.21-1.86a1.37,1.37,0,0,1,1.37-2.38l3.22,1.86a1.37,1.37,0,0,1-.69,2.56Z"/><path class="cls-1" d="M116.15,27.58h-3.71a1.38,1.38,0,0,1,0-2.75h3.71a1.38,1.38,0,0,1,0,2.75Z"/><path class="cls-1" d="M109.83,17.82a1.35,1.35,0,0,1-1.19-.68,1.37,1.37,0,0,1,.5-1.88l3.21-1.86a1.38,1.38,0,0,1,1.38,2.38l-3.22,1.86A1.38,1.38,0,0,1,109.83,17.82Z"/><path class="cls-1" d="M102.68,10.68a1.37,1.37,0,0,1-1.18-2.06l1.85-3.21a1.37,1.37,0,1,1,2.38,1.37L103.88,10A1.37,1.37,0,0,1,102.68,10.68Z"/></g></g></svg>