<svg xmlns="http://www.w3.org/2000/svg" viewBox="0 0 98.79 87.78"><defs><style>.cls-1{fill:#9be64f;}.cls-2{fill:#001336;}</style></defs><g id="Layer_2" data-name="Layer 2"><g id="Layer_1-2" data-name="Layer 1"><path class="cls-1" d="M86.83,87.78H5.48A5.48,5.48,0,0,1,.05,81.6L6.52,4.78A5.48,5.48,0,0,1,12,0H93.3a5.48,5.48,0,0,1,5.44,6.18L92.27,83A5.48,5.48,0,0,1,86.83,87.78Z"/><g id="_4yv8U0" data-name="4yv8U0"><path class="cls-2" d="M65.59,52.58V34.65c0-.76,0-.76.79-.76,1.53,0,3.06,0,4.59,0,.5,0,.63.12.63.63q0,13.25,0,26.49c0,.92-.12.79.8.79,1.18,0,1.18,0,1.18-1.15V26.72c0-.81,0-.81.81-.81,1.53,0,3.06,0,4.59,0,.46,0,.61.11.6.6,0,3.21,0,6.43,0,9.65q0,13.45,0,26.91c0,.59-.15.74-.73.73-2.88,0-5.75,0-8.63,0-.54,0-.72.16-.77.68a14,14,0,0,1-3.45,8,14.25,14.25,0,0,1-12.83,5.17c-6.1-.66-10.25-4-12.56-9.7-.28-.69-.38-.63-1.06-.48A2.24,2.24,0,0,0,37.67,70c0,.61-.24.83-.9.81-2.09,0-4.18,0-6.28,0-.51,0-.7-.15-.75-.65s-.19-1.1-.26-1.66a.51.51,0,0,0-.41-.51,1,1,0,0,1-.45-.17c-.95-.68-1.72-.38-2.54.32s-.94.7-1.77-.12c-1.39-1.39-2.77-2.8-4.19-4.17-.35-.35-.38-.6-.05-.94a1.15,1.15,0,0,0,.14-.19c1.1-1.53,1.09-1.53.34-3.28a.56.56,0,0,0-.48-.37c-.66-.1-1.31-.23-2-.32-.28,0-.36-.15-.36-.42,0-2.32,0-4.63,0-6.94,0-.32.13-.4.42-.44.61-.09,1.22-.24,1.84-.31a.57.57,0,0,0,.58-.49,1.32,1.32,0,0,1,.18-.44c.65-.92.33-1.65-.32-2.43-.78-1-.73-1,.15-1.88,1.4-1.39,2.8-2.78,4.18-4.19.28-.28.49-.35.78-.05a3.21,3.21,0,0,0,.3.21c1.53,1.09,1.53,1.09,3.27.33a.56.56,0,0,0,.36-.49c.09-.64.23-1.27.32-1.9,0-.3.13-.41.44-.41h6.94c.29,0,.38.1.42.37.09.59.2,1.18.3,1.78a2,2,0,0,0,0,.24,3.14,3.14,0,0,0,2.42.94c.54-.38,1.09-.76,1.61-1.16a.37.37,0,0,1,.57,0q2.46,2.49,4.95,5c.19.19.16.32,0,.51-.37.48-.68,1-1.06,1.46a.79.79,0,0,0-.1,1c.53,1.07.5,1.07,1.57.51a10.08,10.08,0,0,1,1.26-.56.61.61,0,0,0,.48-.7c0-1.29,0-2.57,0-3.86,0-.38.1-.53.5-.52q2.5,0,5,0c.4,0,.52.11.51.51,0,1,0,2,0,3.08,0,.34.07.54.46.51a2.17,2.17,0,0,1,.36,0c1.15.13,1.15.13,1.15-1.06,0-2.49,0-5,0-7.48,0-.48.17-.56.59-.55,1.59,0,3.18,0,4.77,0,.52,0,.68.1.67.66,0,3.6,0,7.2,0,10.8a1,1,0,0,0,.43.91C64.54,51.61,65,52.06,65.59,52.58ZM41.67,62.77a13,13,0,1,0,13-12.93A13,13,0,0,0,41.67,62.77Zm1.85-9.92c.28-.31.48-.55.71-.77.91-.92.92-.92.38-2.11-.25-.56-.77-1.14-.73-1.67s.63-1,1-1.54c.2-.26.12-.4-.08-.6-.49-.45-.94-.93-1.42-1.4s-.81-1.11-1.3-1.19-1,.59-1.53.94a.59.59,0,0,1-.75,0,19.71,19.71,0,0,0-1.8-.85c-.55-.23-1.27-.25-1.67-.62s-.27-1.18-.41-1.78a.43.43,0,0,0,0,0c0-.32-.18-.4-.47-.39-1.15,0-2.29,0-3.44,0-.37,0-.49.13-.52.48s-.16.87-.21,1.31a.61.61,0,0,1-.53.61,15,15,0,0,0-1.81.64c-.57.24-1.11.76-1.68.77s-1.06-.65-1.59-1c-.21-.14-.34-.21-.55,0-.85.87-1.7,1.72-2.56,2.56a.33.33,0,0,0-.05.51c.3.38.55.8.85,1.17a.64.64,0,0,1,.07.85,6.42,6.42,0,0,0-.88,1.9c-.25,1.26-.84,2-2.21,1.92-.06,0-.12,0-.18,0-.32,0-.4.16-.4.45,0,1.17,0,2.34,0,3.5,0,.31.1.43.4.46s.87.15,1.31.21a.7.7,0,0,1,.69.6,10.23,10.23,0,0,0,.62,1.76c.24.57.77,1.11.77,1.67s-.65,1.06-1,1.59c-.14.21-.2.34,0,.56.86.84,1.72,1.69,2.56,2.55.18.18.31.2.51.05.4-.31.83-.58,1.22-.89a.59.59,0,0,1,.75-.05,13.93,13.93,0,0,0,1.74.84c.57.23,1.31.26,1.73.64s.3,1.21.43,1.83c.06.3.16.4.46.4,1.16,0,2.33,0,3.5,0,.3,0,.43-.1.46-.4s.16-.91.22-1.36a.65.65,0,0,1,.56-.65,12.29,12.29,0,0,0,2.8-1.11c.19-.1.39-.18.35-.48-.07-.63-.12-1.26-.19-2A9.88,9.88,0,0,1,31,64.4a9.6,9.6,0,0,1-6.52-5.8A10,10,0,0,1,30,45.54,10.06,10.06,0,0,1,43.52,52.85Zm-9.86,9.93A7.72,7.72,0,0,0,38,61.51a4.63,4.63,0,0,0,2.38-3.09,8.57,8.57,0,0,1,1.07-2.61,1.81,1.81,0,0,0,.23-.79,8,8,0,1,0-8,7.76ZM75.58,44.85V60.6c0,1.2,0,1.2,1.18,1.19.86,0,.8.14.8-.81V29.18c0-1.29,0-1.25-1.29-1.3-.61,0-.71.18-.71.74Q75.59,36.74,75.58,44.85Zm-6,16.24V37.22c0-1.36,0-1.34-1.34-1.37-.48,0-.65.09-.65.62,0,6.15,0,12.3,0,18.45a1.53,1.53,0,0,0,.15.76A17.31,17.31,0,0,1,69.58,61.09Zm-8-15.9V42.24c0-1.42,0-1.4-1.43-1.4-.42,0-.55.12-.55.54,0,2,.07,4,0,6,0,1,.14,1.66,1.2,1.84a1,1,0,0,1,.33.16c.35.21.48.13.47-.3C61.59,47.77,61.6,46.48,61.6,45.19Zm-8,1.73c0-1.07,0-1.07-1.08-1.07h-.06c-1,0-.82-.13-.83.83,0,.46-.19,1,.09,1.33s.83-.1,1.26-.07.7-.17.62-.66A2.16,2.16,0,0,1,53.63,46.92Z"/><path class="cls-2" d="M75.49,17.94c-.5,0-1,0-1.49,0-.3,0-.42-.09-.44-.41-.1-1.6-.11-1.6,1.47-1.6,1.34,0,2.69,0,4,0,.4,0,.51.11.5.5q0,2.47,0,4.95c0,.4-.08.56-.52.56-1.49,0-1.49,0-1.49-1.48V19l-2,1.62c-2.2,1.76-4.4,3.51-6.59,5.29-.32.26-.49.26-.78,0-.71-.76-1.48-1.48-2.2-2.23-.24-.25-.39-.32-.67,0-.87.92-1.77,1.81-2.68,2.69a.59.59,0,0,0-.16.69,2.94,2.94,0,0,1-3.54,3.77.6.6,0,0,0-.72.2c-1.53,1.71-3.06,3.42-4.6,5.11a.66.66,0,0,0-.14.8,2.92,2.92,0,0,1-1.28,3.55,3,3,0,0,1-3.78-.64,2.9,2.9,0,0,1,0-3.82.78.78,0,0,0,.15-.95q-1.81-4.8-3.6-9.59c-.13-.35-.26-.59-.7-.59a1.36,1.36,0,0,1-.84-.27c-.49-.4-.84-.2-1.28.07-2.33,1.46-4.68,2.9-7,4.33a.72.72,0,0,0-.42.76,3,3,0,0,1-5.54,1.58.7.7,0,0,0-.75-.43c-1.43,0-2.86,0-4.28,0a.7.7,0,0,0-.75.42A2.9,2.9,0,0,1,20,32.78,3,3,0,0,1,20,27a2.92,2.92,0,0,1,3.33,1.46.68.68,0,0,0,.69.43c1.47,0,2.94,0,4.4,0a.63.63,0,0,0,.66-.38,2.88,2.88,0,0,1,4.17-1.14.54.54,0,0,0,.65,0c2.5-1.55,5-3.08,7.5-4.62a.53.53,0,0,0,.3-.57,3,3,0,0,1,1.95-3.07,3,3,0,0,1,3.47,1.12,2.92,2.92,0,0,1-.27,3.67.59.59,0,0,0-.14.68c1.26,3.31,2.49,6.62,3.74,9.92a1.15,1.15,0,0,0,1.59.31c1.58-1.74,3.15-3.49,4.73-5.24a.47.47,0,0,0,.09-.59,2.95,2.95,0,0,1,3.68-3.89c.34.12.51,0,.72-.24,1.32-1.33,2.65-2.64,4-4,.28-.29.43-.34.74,0,.78.84,1.61,1.63,2.42,2.45.17.17.3.27.54.07,2.19-1.77,4.39-3.52,6.59-5.28Zm-15.86,9a1,1,0,1,0,1,1A1,1,0,0,0,59.63,26.92Zm-9,11.94a1,1,0,0,0,1-1,1,1,0,0,0-1-1,1,1,0,0,0-1,.93A1,1,0,0,0,50.64,38.86Zm-5-16.93a1,1,0,0,0-1-1,1,1,0,1,0,1,1Zm-24.9,7a1,1,0,0,0-1,.95,1,1,0,0,0,1,1,1,1,0,0,0,1-1A1,1,0,0,0,20.74,28.91Zm12,1a1,1,0,1,0-1,1A1,1,0,0,0,32.7,29.9Z"/><path class="cls-2" d="M43.69,62.77a11,11,0,0,1,2.11-6.48c.25-.35.43-.46.77-.11s.87.55,1,.92-.42.72-.63,1.09a9.78,9.78,0,0,0-1.15,3.22c0,.3,0,.4.33.39s.8,0,1.2,0,.38.1.35.36v.06c.09,1.52.09,1.54-1.43,1.56-.42,0-.51.12-.45.52a9,9,0,0,0,7.38,7.34c.42.06.46-.06.46-.41,0-1.5,0-1.48,1.54-1.46.36,0,.53.09.48.47a2.94,2.94,0,0,0,0,.42c0,1.07,0,1.07,1,.84A8.09,8.09,0,0,0,59.93,70c.28-.21.47-.25.67.08a3.29,3.29,0,0,0,.34.42c.67.83.67.83-.2,1.41a11,11,0,0,1-16.85-7A9.2,9.2,0,0,1,43.69,62.77Z"/><path class="cls-2" d="M65.59,62.79a10.89,10.89,0,0,1-2.18,6.57c-.23.32-.38.33-.65.08s-.86-.54-1-.92.39-.76.6-1.15a10,10,0,0,0,1.12-3.1c.07-.35,0-.55-.39-.5H63c-.43,0-1,.21-1.25-.12s-.08-1-.09-1.59c0-.27.18-.26.37-.26.34,0,.69,0,1,0s.56-.12.48-.54a9,9,0,0,0-3.17-5.4,8.8,8.8,0,0,0-4.23-1.92c-.35,0-.49,0-.44.39a.49.49,0,0,1,0,.12c0,.43.2,1.06-.12,1.26s-1.09.07-1.65.08c-.22,0-.25-.15-.25-.32a7.07,7.07,0,0,1,0-1c.06-.52-.18-.55-.59-.47a8.69,8.69,0,0,0-3.62,1.56c-.34.26-.58.3-.81-.1a4.12,4.12,0,0,0-.38-.47c-.56-.68-.56-.68.15-1.18a11,11,0,0,1,17.07,7.33C65.54,61.67,65.55,62.23,65.59,62.79Z"/><path class="cls-2" d="M53.63,60.76c0-.82,0-1.64,0-2.47,0-.35.08-.48.46-.49,1.57,0,1.57,0,1.57,1.49,0,.65,0,1.29,0,1.93s.16.63.62.58.68,0,1,0,.37.1.35.35v.06c.08,1.57.08,1.57-1.48,1.57-.68,0-1.36,0-2,0-.37,0-.48-.13-.47-.49C53.64,62.45,53.63,61.6,53.63,60.76Z"/><path class="cls-2" d="M37.67,54.79a3.17,3.17,0,0,0-.42-1.74c-.23-.38-.12-.56.22-.74a3.19,3.19,0,0,0,.65-.43c.42-.36.64-.3.9.21a6,6,0,0,1-8.17,8c-.38-.21-.43-.36-.17-.7s.42-.85.77-1.07.73.24,1.12.35A4,4,0,0,0,37.67,54.79Z"/><path class="cls-2" d="M27.73,54.79a6,6,0,0,1,8.84-5.21c.36.18.42.34.16.66s-.42.85-.76,1.07-.77-.24-1.18-.34a3.89,3.89,0,0,0-4.05,1.22,3.73,3.73,0,0,0-.62,4.31c.21.45.15.64-.23.84a2.79,2.79,0,0,0-.61.4c-.42.37-.67.3-.91-.21A6.48,6.48,0,0,1,27.73,54.79Z"/></g></g></g></svg>