<svg xmlns="http://www.w3.org/2000/svg" viewBox="0 0 98.79 87.78"><defs><style>.cls-1{fill:#9be64f;}.cls-2{fill:#001336;}</style></defs><g id="Layer_2" data-name="Layer 2"><g id="Layer_1-2" data-name="Layer 1"><path class="cls-1" d="M86.83,87.78H5.48A5.48,5.48,0,0,1,.05,81.6L6.52,4.78A5.48,5.48,0,0,1,12,0H93.3a5.48,5.48,0,0,1,5.44,6.18L92.27,83A5.48,5.48,0,0,1,86.83,87.78Z"/><g id="ADhRs6"><path class="cls-2" d="M79.57,39.79c0,1.68,0,3.37,0,5.05A25.67,25.67,0,0,1,74.8,60.06a1.65,1.65,0,0,0-.25,1.53c1.08,3.86,2.13,7.73,3.18,11.6.19.69.13.74-.57.57-1.27-.31-2.54-.6-3.8-1a.84.84,0,0,0-1.13.46c-1,1.78-2.11,3.54-3.17,5.3-.11.19-.19.49-.42.48s-.27-.36-.34-.57c-1-3.07-2.06-6.13-3.06-9.21-.19-.58-.39-.66-.93-.38a20.5,20.5,0,0,1-3.46,1.35,1.56,1.56,0,0,1-1,0,22.2,22.2,0,0,1-3.52-1.39c-.5-.26-.67-.12-.83.37-1,3.1-2.05,6.19-3.08,9.27-.07.21-.06.52-.3.55s-.34-.29-.46-.48c-1.07-1.77-2.14-3.53-3.18-5.31a.8.8,0,0,0-1.07-.44c-1.3.36-2.62.64-3.93,1-.58.16-.65,0-.5-.55,1-3.84,2.07-7.69,3.16-11.53a1.9,1.9,0,0,0-.3-1.77,25.79,25.79,0,0,1-4.42-11.21c-.09-.65-.36-.79-1-.5a16.66,16.66,0,0,1-2.52,1,.82.82,0,0,0-.62.69c-.11.57-.27,1.12-.38,1.68a.65.65,0,0,1-.73.59q-3.52,0-7,0c-.45,0-.69-.19-.71-.6-.06-1.69-1-2.47-2.55-3a2.72,2.72,0,0,0-2.89.23c-1.15.84-.87.81-1.87-.18-1.48-1.47-2.93-3-4.43-4.41-.42-.41-.5-.75-.11-1.17,1.06-1.16.93-2.28.32-3.71-.54-1.26-1.16-2-2.51-2-.69,0-.95-.37-.94-1.12.06-2.19,0-4.38,0-6.58,0-.55.18-.86.72-.89,1.54-.06,2.26-.87,2.82-2.32a2.91,2.91,0,0,0-.29-3.3c-.61-.75-.53-.82.16-1.51,1.54-1.54,3.08-3.06,4.6-4.61.36-.37.67-.49,1.07-.13,1.19,1.08,2.34,1,3.82.35a2.79,2.79,0,0,0,2-2.4c.12-1,.21-1,1.22-1,2.13,0,4.26,0,6.39,0,.59,0,1,.15,1,.76a2.91,2.91,0,0,0,2.23,2.75c1.32.51,2.34.67,3.41-.31.57-.53,1-.33,1.48.19,1.5,1.56,3,3.09,4.61,4.61.4.38.48.71.11,1.12-1.08,1.17-1,2.31-.34,3.76a2.78,2.78,0,0,0,2.4,2c1,.12,1,.22,1,1.28,0,1.29,0,1.28,1.22.92a23.7,23.7,0,0,0,6.6-3.09,1,1,0,0,1,1.25,0,24.32,24.32,0,0,0,8.92,3.66,41,41,0,0,0,7.75.45c1.92,0,1.92,0,1.92,1.9Zm-36.17.6c.06,1.66,0,3.72.07,5.78a23.55,23.55,0,0,0,3.12,10.68,23.93,23.93,0,0,0,13,10.89,2.1,2.1,0,0,0,1.54,0,23.08,23.08,0,0,0,4-1.82,23.73,23.73,0,0,0,12-18.62c.46-4.19.12-8.42.17-12.63,0-.39-.13-.56-.54-.55-.62,0-1.24,0-1.86,0a25.81,25.81,0,0,1-14.12-3.75.81.81,0,0,0-1,0A26.83,26.83,0,0,1,52,33.55a30.88,30.88,0,0,1-7.79.56c-.66,0-.83.2-.82.83C43.42,36.63,43.4,38.31,43.4,40.39Zm-2.23,2.28-.48.39a12.45,12.45,0,0,1-9.39,2.71A12.84,12.84,0,1,1,45.4,31.14c.06.36,0,.8.62.76l3.11-.21c.3,0,.55-.08.56-.49s-.22-.53-.56-.6-.86-.23-1.29-.3a.82.82,0,0,1-.74-.72,9.18,9.18,0,0,0-1.24-3.28A2.23,2.23,0,0,1,46,23.14c.3-.33.22-.61-.1-.91-.72-.69-1.41-1.4-2.12-2.11s-.65-.73-1.57-.16a5.92,5.92,0,0,0-.68.42.89.89,0,0,1-1.15,0A8.27,8.27,0,0,0,37.44,19c-1.46-.27-2.3-.93-2.34-2.47,0-.38-.24-.52-.62-.52-1.17,0-2.35,0-3.52,0-.37,0-.58.12-.65.5s-.18.69-.23,1A1.15,1.15,0,0,1,29,18.7a7.61,7.61,0,0,0-3,1.16,2.23,2.23,0,0,1-3.17-.14c-.33-.31-.61-.21-.9.11-.49.51-1,1-1.5,1.5-1.29,1.29-1.31,1.3-.34,2.87a1,1,0,0,1,0,1.15,8.1,8.1,0,0,0-1.29,2.76c-.3,1.49-.91,2.52-2.6,2.53-.33,0-.44.23-.44.55,0,1.21,0,2.43,0,3.65a.48.48,0,0,0,.44.55c.43.09.86.23,1.29.3a1,1,0,0,1,.88.83,8.52,8.52,0,0,0,1.19,3.16,2.24,2.24,0,0,1-.12,3.21c-.31.33-.21.62.11.91.51.48,1,1,1.5,1.5,1.3,1.29,1.31,1.31,2.87.34a1,1,0,0,1,1.15,0,8.27,8.27,0,0,0,2.76,1.28c1.49.31,2.52.92,2.53,2.61,0,.32.23.44.55.44,1.21,0,2.43,0,3.65,0a.49.49,0,0,0,.56-.44c.1-.5.24-1,.34-1.49a.71.71,0,0,1,.59-.62,18.09,18.09,0,0,0,4.89-2,.37.37,0,0,0,.25-.39ZM32.58,22.42l-.92.11a10.54,10.54,0,1,0,9.16,17.22,1.47,1.47,0,0,0,.36-1c0-1.8,0-3.59,0-5.39,0-1.4,0-1.42,1.38-1.43.5,0,.67-.14.58-.67A10.69,10.69,0,0,0,32.58,22.42Zm15.6,40.46c-.69,2.56-1.35,5-2,7.42-.11.43.06.45.41.36.66-.18,1.34-.3,2-.51a.75.75,0,0,1,1,.43c.53,1,1.1,1.87,1.67,2.8.07.12.1.32.3.29s.16-.2.2-.32c.61-1.82,1.21-3.65,1.83-5.48a.5.5,0,0,0-.21-.67A27.26,27.26,0,0,1,48.18,62.88ZM69.12,73.75a1,1,0,0,0,.45-.5c.55-.91,1.11-1.82,1.64-2.74a.68.68,0,0,1,.92-.37c.59.18,1.2.31,1.8.46.76.18.78.16.58-.58q-.9-3.28-1.81-6.59c0-.16,0-.36-.26-.44a26.54,26.54,0,0,1-5,4.19c-.25.16-.39.32-.27.65C67.81,69.77,68.45,71.73,69.12,73.75Z"/><path class="cls-2" d="M45.43,42.07c0-2,0-3.58,0-5.19,0-.55.17-.73.72-.73A28.87,28.87,0,0,0,59.85,32.7a1,1,0,0,1,1,0A28.12,28.12,0,0,0,71.62,36c1,.1,2,.14,3,.16.49,0,.71.13.71.67,0,3.23.12,6.48-.06,9.7A21.25,21.25,0,0,1,70,59.39a21.85,21.85,0,0,1-8.92,6.28,1.75,1.75,0,0,1-1.4,0Q47.75,60.74,45.61,48A39.47,39.47,0,0,1,45.43,42.07Zm27.66.45c0-1.41,0-2.46,0-3.5,0-.48-.15-.64-.64-.67a30.62,30.62,0,0,1-9.66-2.23,7.26,7.26,0,0,0-2.37-1,7.4,7.4,0,0,0-2.44,1,31.07,31.07,0,0,1-9.73,2.25c-.34,0-.6,0-.6.5a66.75,66.75,0,0,0,.17,8.37A19.67,19.67,0,0,0,59.57,63.17a1.68,1.68,0,0,0,1.57,0,19.78,19.78,0,0,0,11.3-13.31A26.78,26.78,0,0,0,73.09,42.52Z"/><path class="cls-2" d="M26.28,33a6.43,6.43,0,1,1,6.38,6.44A6.37,6.37,0,0,1,26.28,33Zm6.4-4.18A4.2,4.2,0,1,0,36.89,33,4.26,4.26,0,0,0,32.68,28.82Z"/><path class="cls-2" d="M71.4,44.72a.85.85,0,0,1-.3.44q-6.21,6.2-12.4,12.41c-.35.35-.57.34-.92,0q-3-3-6-6c-.31-.31-.38-.53,0-.87q2-1.95,3.94-4c.33-.33.57-.33.87,0s.81.76,1.17,1.19.62.44,1,0c2.41-2.45,4.85-4.86,7.27-7.29.72-.72.72-.72,1.43,0L71,44.2C71.18,44.36,71.38,44.49,71.4,44.72Zm-13.21,10c.27,0,.39-.23.54-.38l8.51-8.5c1.12-1.13,1.11-1.11,0-2.26-.38-.4-.6-.34-1,0q-3.52,3.57-7.09,7.1c-1.09,1.08-.79,1.07-1.89,0s-1.21-1.2-2.4,0c-.27.28-.3.46,0,.75,1,1,2,2,3,3A2,2,0,0,0,58.19,54.71Z"/><path class="cls-2" d="M49.69,43c0-.76,0-1.51,0-2.26,0-.39.15-.55.53-.61,1-.15,2-.32,3-.51.43-.09.65,0,.74.48.35,1.89.72,1.57-1.29,2-.55.11-.82.29-.77.89.05.78,0,1.55,0,2.33,0,.36-.1.49-.47.54-1.78.25-1.78.26-1.78-1.5V43Z"/><path class="cls-2" d="M58.54,40.08c.05.29,0,.4-.21.46l-.37.14c-1.92.62-1.44.83-2.12-1.21a.41.41,0,0,1,.33-.59,2.78,2.78,0,0,1,.38-.12c.45-.07.93-.59,1.29-.27S58.32,39.61,58.54,40.08Z"/></g></g></g></svg>