<svg xmlns="http://www.w3.org/2000/svg" viewBox="0 0 98.79 87.78"><defs><style>.cls-1{fill:#9be64f;}.cls-2{fill:#001336;}</style></defs><g id="Layer_2" data-name="Layer 2"><g id="Layer_1-2" data-name="Layer 1"><path class="cls-1" d="M86.83,87.78H5.48A5.48,5.48,0,0,1,.05,81.6L6.52,4.78A5.48,5.48,0,0,1,12,0H93.3a5.48,5.48,0,0,1,5.44,6.18L92.27,83A5.48,5.48,0,0,1,86.83,87.78Z"/><g id="GQfGQr"><path class="cls-2" d="M65.63,67.84a3.76,3.76,0,0,1-3,3.94.84.84,0,0,0-.78.75,3.76,3.76,0,0,1-5.41,2.68c-.42-.2-.6-.16-.85.24a3.78,3.78,0,0,1-6,.71c-.33-.31-.59-.85-1-.87s-.5.61-.78.92a3.85,3.85,0,0,1-5.09.5,8.48,8.48,0,0,1-.95-.85l-9.4-9.39c-.34-.34-.59-.71-.91.06a1,1,0,0,1-1.19.55c-2.13-.42-4.27-.83-6.41-1.28-.79-.17-1.07-.74-.89-1.68.3-1.55.61-3.09.92-4.63L26.8,44.82c.21-1,.69-1.35,1.74-1.14l5.81,1.15a1.33,1.33,0,0,1,1.2.94c.09.32.31.4.61.4,2.86,0,5.71,0,8.57,0a1.11,1.11,0,0,0,.74-.27l1.29-1.08a5.06,5.06,0,0,1,6.73-.13,12.82,12.82,0,0,0,4.82,2.62,9.55,9.55,0,0,0,4.54-.06c.38-.09.49-.26.43-.66-.18-1.17.11-1.54,1.27-1.77l5.68-1.14c1.08-.21,1.54.09,1.76,1.19L75.83,64c.22,1.14-.07,1.61-1.19,1.84-1.94.4-3.87.79-5.82,1.16-.94.18-1.31,0-1.65-.92-.08-.21-.15-.46-.39-.2C66.24,66.49,65.34,66.89,65.63,67.84ZM42.43,48.42h-6.8c-.47,0-.55.29-.62.63q-1.34,6.74-2.68,13.48a.94.94,0,0,0,.27.92Q38.17,69,43.72,74.55A1.51,1.51,0,0,0,46,74.7a1.58,1.58,0,0,0-.18-2.28l-2.76-2.76c-.65-.66-.69-1.31-.15-1.83s1.16-.43,1.78.18c.93.91,1.85,1.84,2.77,2.76,1.24,1.24,2.47,2.5,3.73,3.72a1.49,1.49,0,0,0,2.56-.63,1.67,1.67,0,0,0-.64-1.67l-5.67-5.68a3.06,3.06,0,0,1-.53-.61,1.06,1.06,0,0,1,.18-1.36,1,1,0,0,1,1.36-.17,3.36,3.36,0,0,1,.61.52q3.77,3.77,7.54,7.54a4.09,4.09,0,0,0,.71.61,1.49,1.49,0,0,0,2.28-1,1.68,1.68,0,0,0-.65-1.48l-7.25-7.25a3.74,3.74,0,0,1-.53-.6,1.14,1.14,0,0,1,.16-1.48,1.08,1.08,0,0,1,1.48-.06,4.34,4.34,0,0,1,.54.51l7.11,7.1a2.77,2.77,0,0,0,.78.63A1.5,1.5,0,0,0,63,68.94a1.41,1.41,0,0,0-.17-1.83q-5.37-5.46-10.76-10.9a9.1,9.1,0,0,0-2.85-2c-.42-.18-.63-.11-.65.39s-.09.89-.13,1.34c-.33,3.75-2,6-5.4,6.92-1.08.31-1.61,0-1.86-1.11q-.9-4.08-1.78-8.16a3.61,3.61,0,0,1,1.3-3.74Zm6.13,3.28a4.33,4.33,0,0,1,2,.54,16.28,16.28,0,0,1,4.35,3.48c3,3,5.93,6,8.89,9,.3.3.53.34.84,0,.49-.52,1-1,1.52-1.52a.85.85,0,0,0,.26-.9Q65.16,56.24,64,50.11c-.12-.6-.32-.71-.89-.56a10.57,10.57,0,0,1-6.55-.36A17.78,17.78,0,0,1,52,46.47a2.68,2.68,0,0,0-3.54,0c-2.11,1.72-4.19,3.47-6.27,5.22a1.35,1.35,0,0,0-.48,1.44c.49,2.17.94,4.35,1.41,6.52.15.65.26.69.86.34a4.28,4.28,0,0,0,2-3,30.09,30.09,0,0,0,.4-3.27A2,2,0,0,1,48.56,51.7ZM69.71,64.49,73,63.84c.36-.07.38-.3.31-.61-.17-.75-.31-1.5-.46-2.25C71.9,56.25,71,51.51,70,46.78c-.09-.47-.23-.67-.75-.55-1,.23-2,.41-3,.59-.45.09-.56.3-.47.76.54,2.62,1,5.25,1.56,7.87C68,58.29,68.54,61.12,69.1,64,69.16,64.27,69.2,64.56,69.71,64.49Zm-40.65,0c.65.11.59-.37.66-.69Q31.34,55.69,33,47.55c.1-.48-.08-.65-.5-.73-1-.18-1.95-.35-2.91-.58-.54-.13-.69,0-.79.56-.6,3.09-1.23,6.17-1.85,9.25-.47,2.38-.93,4.76-1.41,7.14-.07.33-.08.58.32.65Z"/><path class="cls-2" d="M49.43,9.05A16.88,16.88,0,1,1,32.5,25.84,16.87,16.87,0,0,1,49.43,9.05Zm-2.55,2.61a9.34,9.34,0,0,1,1.32,1.17c1.62,1.82,1.81,3.93.4,5.7a7,7,0,0,1-4.78,2.63c-.88.11-1.75-.09-2.62,0-.26,0-.67,0-.57.44a1.34,1.34,0,0,0,1.8,1,3.66,3.66,0,0,1,3.48.33,3.81,3.81,0,0,0,1.76.63,3,3,0,0,1,2.2,1.31c.65.91,1.29,1.84,1.9,2.78,1.15,1.8.55,3.13-1.25,3.56-.06,0-.12,0-.19.07a1.2,1.2,0,0,0-.92,1.24,4.64,4.64,0,0,1-.86,2.59,6.53,6.53,0,0,0-1,1.87,2.11,2.11,0,0,1-4,.24,3.69,3.69,0,0,1-.44-1.41,5.19,5.19,0,0,0-1-2.83A5,5,0,0,1,41,29.41a.9.9,0,0,0-.49-.89,16,16,0,0,1-3.68-3,2.68,2.68,0,0,0-1.32-.77c-.41-.1-.65,0-.64.48A24.36,24.36,0,0,0,35,28a14.55,14.55,0,0,0,23.72,9.11c.7-.58.71-.58.11-1.22a13.31,13.31,0,0,1-2-2.7A5.12,5.12,0,0,1,57,27.38c.17-.24.32-.5.48-.74a1.3,1.3,0,0,0-.4-2c-.42-.3-.89-.53-1.32-.81a6.8,6.8,0,0,1-3-3.75,3,3,0,0,1,1.5-3.67,7.24,7.24,0,0,1,2.16-.72,28.83,28.83,0,0,1,3.1-.18C57.17,12.53,50.21,10.41,46.88,11.66Zm-1.4,23.82a7.38,7.38,0,0,1,.9-1.35A2.31,2.31,0,0,0,47,32.62a3.6,3.6,0,0,1,2.38-3.5c.24-.09.41-.23.22-.5L48,26.17a1.06,1.06,0,0,0-.72-.33A5.2,5.2,0,0,1,45,25.08a2.09,2.09,0,0,0-2.1-.23,2.74,2.74,0,0,1-2.76-.24,5.13,5.13,0,0,1-1.82-2.46,2.34,2.34,0,0,1,1-2.85,3.9,3.9,0,0,1,2.8-.48,5,5,0,0,0,4.37-1.46,1.76,1.76,0,0,0,.3-2.44,5.26,5.26,0,0,0-3-2.11,1.4,1.4,0,0,0-1.16.12,14.91,14.91,0,0,0-5.51,4.95,14.45,14.45,0,0,0-1.82,3.9c-.06.22-.26.58.21.62a5.26,5.26,0,0,1,3.39,2,9.12,9.12,0,0,0,2.29,1.87,3.56,3.56,0,0,1,2,3.52,1.79,1.79,0,0,0,.35,1.27A8,8,0,0,1,45.48,35.48ZM64,25.92a14.69,14.69,0,0,0-1.59-6.67c-.44-.91-.94-1.56-2.06-1.38-.11,0-.22,0-.34,0a10.06,10.06,0,0,0-4.32.45c-.83.32-1,.74-.57,1.53A5.05,5.05,0,0,0,57.26,22a9.43,9.43,0,0,1,1.46,1,3.46,3.46,0,0,1,.75,4.77c-.23.37-.46.72-.7,1.08a2.84,2.84,0,0,0-.11,2.95,10.9,10.9,0,0,0,1.75,2.46c.52.59.53.61,1-.07A14.21,14.21,0,0,0,64,25.92Z"/></g></g></g></svg>